<?xml version="1.0" encoding="UTF-8"?>
<svg id="Calque_1" data-name="Calque 1" xmlns="http://www.w3.org/2000/svg" width="180mm" height="140mm" viewBox="0 0 510.24 396.85">
  <defs>
    <style>
      .cls-1 {
        fill: #fff;
      }

      .cls-1, .cls-2, .cls-3 {
        stroke-width: 0px;
      }

      .cls-2 {
        fill: #c6c6c6;
      }

      .cls-3 {
        fill: #575756;
      }
    </style>
  </defs>
  <path class="cls-3" d="m0,219.66c18.91-1.77,28.9-18.63,40.63-28.99,10.93-11.87,22.97-24.61,36.9-41.65,7.64-9.18,22.85-27.68,41.29-50.48,9.12-11.92,19.54-22.51,29.38-37.76,1.01-3.42,5.44-7.62,7.76-10.4,1.85-2.2,2.06,7.41,12.43,15.78,10.99,5.7,23.01,5.32,32.69-2.67,8.37-8.23,10.57-16.41,13.99-22.25,9.46-13.1,1.59-12.07,9.86-.18,7.6,20.32,13.15,36.45,14.01,36.49.83-.5,6.17,17.02,30.75,30.33,12.49,5.79,28.96,6.37,44.3,2.58,14.6-2.58,35.18-14.4,33.65-7.28,10.14,25.03,14.51,65.59,30.09,91.37,14.24,26.88,29.94,46.54,38.71,55.28,32.19,32.54,57.88,43.63,93.79,50.93-32.27-18.1-51.53-33.04-81.2-63.19-8.08-8.11-22.5-26.32-35.75-51.25-15.29-25.37-16.11-56.39-30.84-92.67-2.57-4.83-9.5-10.87-16.73-10.54-6.57-.09-11.32,1.96-14.96,3.36-7,2.74-14.07,5.19-20.62,6.58-13.24,3.22-24.93,2.4-33.41-1.45-16.6-8.75-22.45-23.5-22.45-22.41-.42.61-4.62-11.85-13.38-35.28-3.69-5.36-2.69-13.37-17.51-19.59-18.08.84-18.94,12.48-23.71,18.44-7.16,16.42-12.09,22.59-22.25,18.1-3.49-1.06-2.02-9.27-16.69-20.11-16.26-1.09-15.32,6.68-19.57,9.27-3.04,3.76-5.32,7.39-7.62,10.9-7.85,12.47-19.63,24.96-28.27,36.23-18.3,22.64-33.5,41.19-41.11,50.46C34.22,169.38,26.99,199.37,0,219.66Z"/>
  <g>
    <path class="cls-1" d="m145.32,248.89c0,2.19-.1,4.03-.3,5.5-.21,1.48-.54,2.74-1,3.78-.46,1.04-1.02,1.81-1.69,2.3-.66.49-1.46.74-2.38.74H52.19c-2.36,0-4.58-.86-6.67-2.55-2.1-1.69-3.15-4.68-3.15-8.94V52.99c0-.88.21-1.64.61-2.3.41-.65,1.13-1.17,2.15-1.56,1.02-.38,2.41-.71,4.14-.98,1.74-.27,3.84-.41,6.29-.41s4.68.14,6.37.41c1.68.28,3.04.6,4.06.98,1.02.39,1.74.91,2.15,1.56.4.66.6,1.42.6,2.3v183.75h71.19c.93,0,1.72.25,2.38.74.66.49,1.23,1.21,1.69,2.13.46.93.79,2.16,1,3.7.2,1.53.3,3.39.3,5.58Z"/>
    <path class="cls-1" d="m192.63,256.94c0,.87-.21,1.64-.61,2.3-.41.65-1.13,1.17-2.15,1.56-1.02.38-2.38.71-4.06.99-1.69.27-3.81.41-6.37.41s-4.55-.14-6.29-.41c-1.74-.28-3.12-.61-4.14-.99-1.02-.39-1.74-.91-2.15-1.56-.41-.66-.62-1.43-.62-2.3V79.97c0-.88.24-1.64.69-2.3.46-.65,1.23-1.17,2.3-1.56,1.07-.38,2.45-.71,4.14-.99,1.69-.27,3.71-.41,6.06-.41,2.55,0,4.68.14,6.37.41,1.69.28,3.04.6,4.06.99,1.02.38,1.74.9,2.15,1.56.4.66.61,1.43.61,2.3v176.97Z"/>
  </g>
  <g>
    <path class="cls-2" d="m357.18,302.89c-6.91,0-10.38-2.29-10.38-6.88v-48.04c0-9.54-1.15-15.48-3.46-17.84-2.07-2-6.52-3-13.32-3s-11.59,1-13.66,3c-2.31,2.59-3.46,8.53-3.46,17.84v48.56c0,4.48-3.4,6.71-10.21,6.71s-10.21-2.24-10.21-6.71v-131.92c0-4.71,3.41-7.07,10.21-7.07s10.21,2.36,10.21,7.07v56.86c4.49-1.06,10.2-1.59,17.12-1.59,11.65,0,20.35,1.65,26.12,4.94,7.49,4.24,11.25,11.95,11.25,23.14v48.04c0,4.59-3.41,6.88-10.21,6.88Z"/>
    <path class="cls-2" d="m447.3,391.91c-5.77,3.29-14.47,4.94-26.12,4.94s-20.76-1.65-26.29-4.94c-7.5-4.13-11.25-11.78-11.25-22.96,0-4.59,3.4-6.89,10.21-6.89s10.2,2.3,10.2,6.89v.18c0,8,.87,13.36,2.59,16.07,2.2,3.06,7.04,4.59,14.53,4.59,3.69,0,6.78-.35,9.25-1.06,2.48-.71,4.24-1.89,5.28-3.53.92-1.3,1.52-3.3,1.82-6.01.28-2.7.43-6.12.43-10.24v-66.94c-4.04.83-9.63,1.24-16.78,1.24-12.33,0-21.11-1.53-26.29-4.59-7.5-4.24-11.25-11.89-11.25-22.96v-48.57c0-4.59,3.4-6.88,10.21-6.88s10.2,2.29,10.2,6.88v48.57c0,8.01.87,13.36,2.59,16.07,1.15,1.65,2.94,2.86,5.37,3.62,2.42.77,5.47,1.15,9.16,1.15,7.5,0,12.28-1.59,14.36-4.77,1.61-2.58,2.42-7.88,2.42-15.89v-48.39c0-4.71,3.46-7.07,10.38-7.07s10.2,2.35,10.2,7.07v141.46c0,10.83-3.75,18.48-11.25,22.96Z"/>
  </g>
  <path class="cls-2" d="m411.21,58.81c-2.36-18.68-16.72-31.59-28.35-39.12-15.04-9.74-35.08-16.61-54.98-18.84-4.97-.56-10.06-.85-15.1-.85-16.73,0-32.12,3.08-44.52,8.89-12.2,5.74-21.66,16.03-28.13,30.6-11.22,25.28-11.71,54.16-10.7,79.08.1,2.62.22,5.24.35,7.82l.64,16.28-4-.33c-28.78-2.39-52.85-10.2-71.54-23.21-15.39-10.72-25.33-24.91-27.98-39.95-2.56-14.53,2.8-32.3,13.32-44.2,3.48-3.95,8.05-8.59,10.77-11.15,1.77-1.67,5.97-4.94,7.14-5.56l.41-.18c.57-.21,1.15-.41,1.89-.65l2.27-.61,1.25.73c.73.43,1.38,1,1.99,1.76.68-7.14,6.57-12.72,13.74-12.72.19,0,.37.02.56.03-3.16-1.08-6.8-1.63-10.87-1.63-8.49,0-16.46,1.53-20.81,4-11.08,6.28-14.73,8.66-22.42,15.83-13.05,12.18-21.05,25.7-23.77,40.18-3.25,17.23,2.56,35.04,16.34,50.13,29.09,31.86,80.4,38.64,108.4,39.84l3.43.15v145.27l1.32,1.09c.97.8,2.93,1.76,6.77,1.76,5.96,0,15.29-2.51,16.56-7.04l.14-.49v-140.88s3.36-.2,3.36-.2c33.45-2.03,65.59-9.34,92.95-21.13,31.63-13.64,63.9-40.42,59.59-74.71Zm-24.91,15.34c-2.07,13.6-10.39,26.77-23.42,37.07-28,22.16-68.95,29.22-98.37,31.25-1.81.12-3.63.23-5.45.33l-3.75.19s-.67-20.78-.75-22.1c-.74-11.43-.79-22.66-.16-33.37.93-15.92,3.3-29.46,7.26-41.39,3.03-9.13,8.41-22.09,20.03-29.3.36-.23,1.15-.64,2.43-1.22l.09-.04c.44-.17,1.97-.7,3.56-1.19,2.47-.76,5.74-1.37,9.97-1.85,7.03-.8,15.01-.47,24.56,1.05,17.78,2.83,34.46,10.17,46.99,20.66,13.02,10.91,19.23,25.46,17.03,39.91Z"/>
  <path class="cls-1" d="m180.23,6.63c-.19,0-.37-.03-.56-.03-7.17,0-13.06,5.58-13.74,12.72-.04.46-.07.92-.07,1.38,0,7.79,6.18,14.1,13.81,14.1s13.81-6.31,13.81-14.1-5.89-13.78-13.26-14.08Z"/>
</svg>